<?xml version="1.0" encoding="UTF-8" standalone="no"?>
<!DOCTYPE svg PUBLIC "-//W3C//DTD SVG 1.1//EN" "http://www.w3.org/Graphics/SVG/1.1/DTD/svg11.dtd">
<svg width="100%" height="100%" viewBox="0 0 2164 1519" version="1.1" xmlns="http://www.w3.org/2000/svg" xmlns:xlink="http://www.w3.org/1999/xlink" xml:space="preserve" xmlns:serif="http://www.serif.com/" style="fill-rule:evenodd;clip-rule:evenodd;stroke-linejoin:round;stroke-miterlimit:2;">
    <g id="Artboard1" transform="matrix(1,0,0,1,-2861.97,-375.554)">
        <rect x="2861.97" y="375.554" width="2163.37" height="1518.97" style="fill:none;"/>
        <clipPath id="_clip1">
            <rect x="2861.97" y="375.554" width="2163.37" height="1518.97"/>
        </clipPath>
        <g clip-path="url(#_clip1)">
            <g transform="matrix(1,0,0,1,2861.97,375.554)">
                <rect x="-32.383" y="-15.792" width="2241.61" height="1573.7" style="fill:transparent;"/>
            </g>
            <g transform="matrix(4.16667,0,0,-4.16667,3501.32,1664.17)">
                <path d="M0.363,167.8C1,174.445 2.605,181.718 4.074,184.597C4.453,185.339 5.008,186.773 5.309,187.781C5.605,188.789 6.426,190.558 7.129,191.718C7.832,192.878 8.668,194.453 8.984,195.222C9.688,196.929 14.02,203.167 17.066,206.867C20.871,211.48 23.426,214.062 26.453,216.335C28.047,217.539 29.727,218.945 30.18,219.464C30.637,219.984 32.129,221.167 33.496,222.093C34.863,223.019 36.168,224.003 36.398,224.281C36.973,224.976 39.59,226.472 46.34,229.968C59.879,236.98 58.027,236.183 67.578,239.093C69.863,239.789 71.496,240.519 71.617,240.898C71.781,241.414 72.414,241.507 74.895,241.378C76.586,241.292 78.594,241.425 79.352,241.671C80.109,241.917 83.062,242.425 85.914,242.796C90.355,243.374 92.152,243.402 98.551,242.988C102.652,242.722 107.035,242.249 108.289,241.937C110.742,241.331 114.988,240.628 118.645,240.23C119.898,240.093 121.484,239.734 122.168,239.433C122.852,239.128 124.25,238.503 125.277,238.042C126.301,237.581 127.797,236.992 128.598,236.738C129.398,236.48 131.355,235.492 132.949,234.539C135.973,232.73 138.637,231.195 140.926,229.949C141.668,229.542 142.789,228.816 143.41,228.328C144.035,227.839 145.477,226.831 146.617,226.085C148.578,224.8 151.691,221.878 154.559,218.628C155.273,217.82 156.203,216.874 156.629,216.527C157.859,215.527 164.305,208.16 166.375,205.39C168.191,202.96 173.262,193.195 175.637,187.539C177.902,182.144 179.051,176.996 179.316,171.035C179.422,168.679 179.637,165.675 179.793,164.363C180.309,160.05 177.578,137.105 175.203,125.792C174.23,121.148 172.91,113.414 172.5,109.933C172.105,106.605 170.879,101.019 169.391,95.761C168.07,91.113 167.879,90.089 168.32,90.089C168.652,90.089 175.438,78.917 175.875,77.652C176.074,77.074 178.5,73.035 180.25,70.367C180.973,69.265 182.246,66.906 183.082,65.121C183.914,63.335 184.684,61.96 184.785,62.062C185.031,62.316 184.219,67.882 183.512,70.765C182.785,73.746 180.812,78.496 179.414,80.636C175.297,86.96 172.035,90.824 170.148,91.624C168.668,92.249 168.477,92.667 169.336,93.394C170.207,94.124 172.859,92.57 174.918,90.117C177.781,86.699 182.648,79.136 183.449,76.859C185.527,70.933 186.164,68.078 186.434,63.468C186.738,58.339 186.371,55.441 184.289,46.515C183.738,44.156 183.285,41.851 183.285,41.402C183.285,40.39 179.957,30.085 178.789,27.472C178.266,26.304 177.074,24.839 175.738,23.714C174.535,22.703 172.801,21.164 171.891,20.296C170.133,18.624 164.277,14.48 163.668,14.48C163.473,14.48 162.535,13.953 161.594,13.304C159.316,11.753 153.855,9.273 150.758,8.386C147.938,7.574 141.129,5.265 140.191,4.8C139.852,4.628 137.055,4.081 133.977,3.578C130.902,3.074 126.719,2.39 124.684,2.062C122.652,1.73 119.723,1.457 118.176,1.457C116.629,1.457 113.453,1.148 111.113,0.773C105.473,-0.133 94.484,0.121 80.527,1.476C73.879,2.124 71.703,2.476 57.32,5.257C51.863,6.312 47.316,8.203 38.676,13.007C33.094,16.113 32.336,16.644 29.414,19.48C26.043,22.749 23.852,26.363 22.074,31.585C21.102,34.429 20.656,42.566 21.215,47.242C21.863,52.671 27.195,67.144 30.691,72.949C32.516,75.988 38.113,82.949 38.727,82.949C38.934,82.949 39.727,83.363 40.488,83.871L41.879,84.792L39.344,87.785C37.953,89.429 36.41,91.261 35.918,91.859C35.43,92.453 34.777,93.105 34.469,93.3C34.16,93.499 33.238,94.511 32.414,95.55C31.59,96.589 30.293,98.101 29.535,98.91C28.777,99.718 27.215,101.515 26.07,102.902C24.926,104.289 23.422,106.054 22.734,106.824C22.043,107.597 21.312,108.523 21.113,108.886C20.91,109.249 20.102,110.128 19.316,110.843C18.531,111.558 16.129,114.101 13.977,116.499C9.457,121.531 8.113,124.081 5.328,132.937C2.586,141.652 0.422,152.535 0.027,159.609C-0.062,161.226 0.086,164.914 0.363,167.8ZM2.992,150.367C4.512,142.234 5.926,136.277 7.156,132.839C7.625,131.519 8.012,130.207 8.012,129.929C8.012,129.652 8.945,127.519 10.082,125.191C11.5,122.296 12.934,120.109 14.641,118.253C16.008,116.765 17.129,115.441 17.133,115.312C17.133,115.187 18.285,114.136 19.688,112.984C21.094,111.828 23.457,109.781 24.941,108.433C26.426,107.089 28.492,105.515 29.535,104.941C30.574,104.367 32.906,103.058 34.715,102.035C36.523,101.007 38.527,100.171 39.168,100.171C39.809,100.171 40.332,100.007 40.332,99.808C40.332,99.16 45.887,96.652 47.234,96.687C48.141,96.714 48.602,96.503 48.73,96.011C48.836,95.601 49.688,95.07 50.734,94.753C52.809,94.136 55.188,93.097 56.023,92.445C56.871,91.789 59.273,90.941 62.293,90.242C66.465,89.273 81.293,89.421 88.438,90.503C91.492,90.964 94.777,91.343 95.738,91.347C98.195,91.347 110.25,94.175 118.23,96.621C120.66,97.363 123.922,98.691 127.969,100.585C129.336,101.222 130.918,101.89 131.484,102.07C132.789,102.476 137.875,104.953 139.777,106.105C149.781,112.175 151.617,113.511 157.18,118.742C161.012,122.347 164.285,126.175 165.902,128.945C166.574,130.101 167.297,131.328 167.504,131.675C170.543,136.765 173.34,144.433 173.34,147.667C173.34,150.335 173.641,151.539 174.219,151.175C174.43,151.046 174.473,150.734 174.32,150.484C174.164,150.23 174.234,150.148 174.473,150.296C174.707,150.445 174.992,150.992 175.109,151.515C175.223,152.039 175.812,154.265 176.426,156.457C177.387,159.917 177.531,161.203 177.512,166.121C177.484,173.148 176.984,177.304 175.602,181.898C174.59,185.257 172.027,191.328 169.848,195.523C165.578,203.738 165.711,203.542 160.23,209.804C154.176,216.726 147.742,223.269 145.578,224.71C144.555,225.39 143.062,226.449 142.266,227.062C141.469,227.671 139.324,228.984 137.5,229.976C135.676,230.964 133.527,232.195 132.727,232.707C129.414,234.82 120.52,238.226 116.367,238.972C114.09,239.382 110.824,239.988 109.117,240.324C107.406,240.656 102.652,241.128 98.551,241.371C91.07,241.812 86.504,241.554 80.527,240.359C79.273,240.109 77.836,239.949 77.332,240.003C76.828,240.062 75.801,239.828 75.051,239.488C74.301,239.148 72.852,238.749 71.824,238.605C68.863,238.187 59.926,235.089 56.078,233.148C41.484,225.785 35.805,222.371 31.633,218.464C30.836,217.718 29.062,216.273 27.695,215.257C26.328,214.238 24.582,212.831 23.816,212.132C21.09,209.636 12.434,198.421 10.832,195.312C10.477,194.621 9.418,192.578 8.477,190.777C7.539,188.972 6.77,187.214 6.77,186.871C6.77,186.527 6.305,185.355 5.734,184.273C5.164,183.187 4.699,182.05 4.699,181.746C4.699,181.441 4.41,180.289 4.055,179.191C3.699,178.089 3.051,175.312 2.617,173.019C1.562,167.464 1.734,157.093 2.992,150.367ZM8.285,170.261C9.008,175.296 9.496,177.296 11.812,184.601C13.777,190.82 15.703,195.386 16.961,196.816C17.281,197.183 17.543,197.699 17.543,197.964C17.543,198.66 22.457,206.132 23.531,207.074C23.797,207.304 24.551,208.253 25.211,209.175C25.871,210.101 26.535,210.953 26.691,211.066C26.848,211.183 27.648,212.097 28.473,213.101C29.297,214.101 31.039,215.765 32.344,216.789C35.09,218.953 42.902,223.457 45.68,224.476C46.727,224.863 48.371,225.593 49.328,226.101C50.289,226.613 51.285,227.027 51.547,227.027C51.805,227.027 53.586,227.785 55.508,228.71C57.426,229.632 59.156,230.39 59.355,230.39C59.555,230.39 60.996,230.976 62.559,231.695C64.121,232.414 65.961,233.242 66.645,233.539C68.957,234.539 72.617,235.445 75.023,235.609C76.34,235.703 78.172,235.906 79.094,236.062C80.387,236.285 80.902,236.195 81.328,235.671C81.637,235.296 81.812,234.917 81.723,234.828C81.633,234.738 79.418,234.476 76.797,234.249C73.625,233.976 70.887,233.453 68.605,232.687C65.648,231.691 65.152,231.386 64.961,230.437C64.539,228.355 63.461,226.812 61.332,225.242C60.16,224.378 58.73,223.66 58.156,223.648C57.582,223.64 56.367,223.175 55.457,222.621C54.547,222.062 52.457,220.831 50.812,219.886C49.168,218.941 46.801,217.171 45.551,215.953C43.227,213.691 41.711,212.984 38.215,212.539C35.852,212.234 34.984,211.328 33.586,207.707C32.734,205.492 32.234,204.796 30.945,204.039C30.07,203.523 28.887,203.089 28.316,203.078C26.164,203.031 23.094,199.105 21.676,194.581C21.168,192.96 20.395,191.433 19.863,191.011C19.355,190.605 18.59,189.707 18.164,189.011C17.738,188.32 16.598,186.953 15.633,185.972C11.281,181.554 8.371,167.433 9.652,156.964C11.367,142.968 12.359,137.71 13.562,136.328C13.879,135.964 14.707,134.531 15.402,133.144C17.34,129.289 18.844,127.218 23.023,122.644C29.125,115.964 32.43,112.863 35.98,110.484C39.344,108.234 43.25,106.238 45.512,105.613C46.195,105.425 48.34,104.617 50.277,103.816C58.707,100.343 77.492,98.367 93.578,99.261C104.062,99.847 108.98,100.863 119.891,104.71C121.828,105.394 124.996,106.468 126.934,107.093C130.016,108.089 135.457,110.738 136.051,111.531C136.164,111.683 136.723,112.046 137.293,112.335C139.82,113.632 142.559,115.839 143.25,117.14C143.66,117.917 144.41,118.777 144.91,119.046C145.41,119.32 146.312,120.335 146.914,121.304C149.227,125.027 150.66,126.914 152.641,128.855C153.77,129.96 154.699,130.999 154.703,131.167C154.715,131.824 157.129,134.195 157.781,134.195C158.488,134.195 159.254,134.996 161.812,138.398C163.051,140.046 164.227,142.496 166.918,149.042L167.582,150.656L166.383,150.386C163.391,149.722 163.027,154.839 165.98,156.078C167.156,156.574 167.316,156.531 168.223,155.46C168.758,154.828 169.199,154.406 169.199,154.523C169.199,154.64 169.465,155.738 169.789,156.964C172.133,165.757 172.016,164.835 171.613,171.128C171.379,174.847 170.949,177.925 170.453,179.449C169.496,182.39 167.113,187.906 166.164,189.378C165.781,189.972 165.469,190.613 165.469,190.812C165.469,191.007 164.98,192.195 164.383,193.449C163.785,194.707 162.848,196.757 162.305,198.007C160.594,201.925 152.84,210.339 148.141,213.378C146.711,214.3 144.102,216.101 142.348,217.378C140.594,218.656 135.844,221.371 131.797,223.414C127.746,225.457 124.348,227.273 124.238,227.453C124.129,227.628 123.352,227.906 122.508,228.066C121.66,228.226 120.121,228.789 119.082,229.32C117.074,230.343 112.422,231.648 110.746,231.652C110.191,231.656 108.824,231.941 107.703,232.285C104.281,233.335 102.641,233.132 101.086,231.464C99.848,230.132 99.625,230.05 98.203,230.374C96.168,230.839 95.582,231.386 95.262,233.136C95.027,234.394 94.828,234.589 93.801,234.589C93.145,234.589 92.527,234.828 92.422,235.113C92.289,235.48 91.969,235.363 91.371,234.734C89.668,232.941 85,232.972 84.188,234.785C83.34,236.667 85.719,238.789 88.672,238.789C90.043,238.789 92.617,237.101 92.348,236.374C92.055,235.578 96.027,235.675 96.684,236.48C97.309,237.242 99.172,237.32 99.176,236.585C99.18,235.695 101.75,234.457 103.391,234.554C104.227,234.609 106,234.367 107.324,234.023C108.652,233.679 111.508,233.078 113.672,232.687C115.898,232.285 118.594,231.476 119.887,230.82C121.141,230.179 122.633,229.519 123.203,229.351C125.578,228.64 140.168,220.941 142.328,219.257C143.617,218.253 145.242,217.132 145.938,216.765C151.559,213.82 161.98,203.386 164.055,198.632C164.648,197.269 165.676,194.98 166.336,193.546C167,192.113 167.539,190.757 167.539,190.535C167.539,190.316 167.68,190.07 167.852,189.992C168.207,189.831 170.441,184.843 171.957,180.824C172.801,178.589 173.039,176.988 173.285,172.003C173.547,166.605 173.477,165.414 172.668,161.499C171.648,156.574 171.07,154.511 170.512,153.792C170.305,153.527 169.898,152.55 169.609,151.628C169.32,150.703 168.719,149.097 168.27,148.058C167.824,147.019 167.316,145.789 167.148,145.328C166.086,142.453 164.316,139.16 162.648,136.953C160.906,134.644 159.484,133.136 153.965,127.734C152.996,126.781 151.691,125.249 151.066,124.324C150.441,123.402 149.68,122.378 149.375,122.05C149.07,121.726 148.375,120.742 147.828,119.863C147.281,118.988 146.48,118.078 146.047,117.843C145.613,117.609 144.898,116.796 144.457,116.039C144.016,115.281 142.457,113.867 140.992,112.894C139.527,111.921 137.91,110.828 137.398,110.46C135.109,108.824 130.008,106.394 126.855,105.437C124.961,104.863 120.336,103.363 116.574,102.105C109.496,99.738 104.082,98.355 99.793,97.816C95.559,97.285 73.172,97.414 69.961,97.988C68.363,98.273 65.008,98.773 62.5,99.101C56.242,99.921 52.82,100.742 48.207,102.531C38.836,106.16 32.766,109.812 28.316,114.492C23.809,119.234 17.98,125.605 17.203,126.636C16.766,127.21 15.891,128.726 15.258,129.996C14.621,131.265 13.574,133.171 12.922,134.234C11.227,137.003 9.824,142.023 9.062,148.058C8.699,150.945 8.211,154.656 7.977,156.304C7.473,159.882 7.594,165.433 8.285,170.261ZM14.371,187.124C14.82,187.124 16.617,189.226 17.25,190.496C17.656,191.312 18.395,192.164 18.891,192.386C19.738,192.769 20.383,194.363 21.055,197.722C21.289,198.882 22.77,200.796 25.418,203.359C26.465,204.371 27.25,204.761 28.246,204.765C30.039,204.765 31.664,206.402 32.629,209.175C33.031,210.331 33.5,211.558 33.664,211.906C34.152,212.921 36.734,214.007 39.039,214.171C41.488,214.347 43.809,215.699 45.48,217.917C46.086,218.722 47.852,220.031 49.555,220.929C51.207,221.804 53.508,223.156 54.672,223.933C55.836,224.71 57.223,225.347 57.758,225.347C59.094,225.347 61.742,227.292 62.496,228.828C63.258,230.374 63.277,230.617 62.605,230.074C62.32,229.847 61.34,229.421 60.43,229.132C59.52,228.843 57.477,227.968 55.895,227.187C54.316,226.406 52.77,225.769 52.465,225.769C52.16,225.769 50.844,225.226 49.539,224.566C48.238,223.906 46.426,223.124 45.512,222.831C44.602,222.542 43.574,222.062 43.234,221.769C42.891,221.476 41.137,220.445 39.336,219.48C35.355,217.339 31.246,214.074 28.699,211.027C25.668,207.398 21.539,201.792 20.223,199.515C19.551,198.359 18.781,197.035 18.508,196.574C18.035,195.785 15.781,191.109 14.754,188.804C14.262,187.703 14.133,187.124 14.371,187.124ZM86.328,235.007C86.93,234.683 87.621,234.699 88.832,235.066C90.598,235.601 90.867,236.425 89.551,237.265C88.988,237.624 88.711,237.55 88.266,236.933C87.953,236.496 87.496,236.265 87.254,236.417C86.73,236.746 85.496,236.328 85.496,235.82C85.496,235.621 85.871,235.257 86.328,235.007ZM97.555,232.046C98.031,231.789 98.867,231.691 99.418,231.831C100.887,232.207 100.672,233.511 98.973,234.527C97.637,235.328 97.504,235.339 97.121,234.675C96.461,233.527 96.621,232.554 97.555,232.046ZM166.305,152.046C166.668,152.046 166.973,152.519 167.051,153.203C167.141,154.003 166.992,154.359 166.566,154.359C166.227,154.359 165.855,154.121 165.738,153.831C165.375,152.941 165.656,152.046 166.305,152.046ZM14.039,141.191C14.855,141.507 15.227,141.132 14.918,140.312C14.777,139.941 14.402,139.777 14.039,139.917C13.219,140.238 13.219,140.874 14.039,141.191ZM15.68,143.855C16.02,143.855 16.301,143.574 16.301,143.226C16.301,142.878 16.02,142.597 15.68,142.597C15.336,142.597 15.059,142.878 15.059,143.226C15.059,143.574 15.336,143.855 15.68,143.855ZM16.73,139.578C17.195,140.081 17.914,140.496 18.324,140.496C19.301,140.496 20.445,139.195 20.445,138.078C20.445,137.101 18.645,135.457 17.57,135.457C15.812,135.457 15.293,138.011 16.73,139.578ZM18.062,137.242C18.348,137.335 18.578,137.761 18.578,138.187C18.578,138.609 18.348,139.035 18.062,139.132C17.734,139.242 17.543,138.894 17.543,138.187C17.543,137.476 17.734,137.128 18.062,137.242ZM19.777,143.542C20.617,144.664 21.148,144.421 20.945,143.011C20.734,141.539 20.094,140.98 19.574,141.808C19.109,142.554 19.121,142.664 19.777,143.542ZM31.039,169.691C31.828,173.742 32.973,176.695 36.43,183.601C38.957,188.652 39.82,189.953 42.227,192.359C44.23,194.359 45.457,195.249 46.426,195.41C47.758,195.628 47.793,195.597 47.793,194.128C47.793,193.234 47.289,191.726 46.551,190.398C43.215,184.421 40.281,177.874 39.711,175.152C38.578,169.718 38.059,160.691 38.609,155.921C39.289,150.031 40.18,147.238 42.199,144.664C43.395,143.14 44.336,142.671 43.309,144.113C41.703,146.355 41.051,149.117 41.559,151.511C42.73,157.05 44.41,157.933 45.973,153.831C46.629,152.109 47.797,150.429 50.023,147.999C51.742,146.124 53.355,143.953 53.609,143.171C53.863,142.394 54.215,141.757 54.387,141.757C54.559,141.757 54.914,141.289 55.172,140.714C55.426,140.144 57.09,138.128 58.863,136.242C62.754,132.097 65.301,130.769 73.281,128.734C78.332,127.441 78.961,127.374 83.582,127.609C87.75,127.82 88.711,128.003 89.855,128.8C91.527,129.96 93.965,133.617 94.012,135.035C94.031,135.613 94.289,136.871 94.59,137.831C95.461,140.624 94.898,142.472 92.461,144.8C91.316,145.898 90.109,146.796 89.781,146.796C89.453,146.796 88.645,147.081 87.984,147.425C87.324,147.773 85.793,148.331 84.586,148.671C77.047,150.777 68.441,154.632 66.02,156.992C62.438,160.48 61.637,161.824 60.184,166.757C59.598,168.746 59.246,171.406 59.094,175.023C58.895,179.824 58.969,180.664 59.836,183.425C61.031,187.218 62.148,189.027 62.91,188.386C63.203,188.14 63.875,186.761 64.402,185.324C66.176,180.484 69.398,173.906 71.086,171.683C73.391,168.64 75.914,166.878 81.859,164.16C84.66,162.882 87.973,161.316 89.227,160.679C90.48,160.046 92.57,159.101 93.871,158.581C95.465,157.945 96.852,156.968 98.129,155.581C100.746,152.746 101.656,150.414 101.656,146.554C101.656,142.699 102.004,142.609 105.117,145.667C107.566,148.07 108.199,149.734 107.699,152.437C107.352,154.316 103.645,157.796 100.941,158.789C94.863,161.011 93.426,161.585 91.922,162.382C85.199,165.949 84.414,166.507 80.152,170.742C73.555,177.296 71.496,181.324 71.109,188.417C70.891,192.421 70.898,192.445 72.035,193.351C74.797,195.554 78.586,193.882 80.633,189.558C84.281,181.855 85.641,179.234 86.461,178.3C87.895,176.679 90.586,175.371 94.316,174.484C101.145,172.859 106.219,170.269 109.707,166.624C111.371,164.886 113.215,161.164 113.242,159.48C113.254,158.941 113.445,158.624 113.676,158.769C113.902,158.91 114.09,159.46 114.09,159.992C114.09,161.664 114.965,163.671 115.59,163.429C116.727,162.984 115.863,168.769 114.301,172.046C113.348,174.046 110.312,175.882 104.652,177.894C95.203,181.253 93.43,182.203 88.852,186.374C87.484,187.624 86.312,189.23 85.5,190.964C84.277,193.585 83.867,196.492 84.652,196.984C84.871,197.121 85.941,196.765 87.035,196.195C88.125,195.624 90.703,194.871 92.762,194.519C103.148,192.738 113.195,186.316 115.102,180.238C115.664,178.449 115.668,179.976 115.109,182.148C113.398,188.785 109.93,192.32 103.109,194.374C100.27,195.23 92.805,198.871 90.16,200.691C86.504,203.207 82.598,207.296 82.598,208.609C82.598,210.839 85.324,212.152 89.215,211.796C91.84,211.554 94.191,210.476 97.293,208.093C99.461,206.429 100.047,205.808 102.277,202.847C104.023,200.527 105.301,199.218 106.898,198.113C109.969,195.984 108.227,200.617 104.445,204.636C103.262,205.894 101.395,208.281 100.293,209.937C99.191,211.597 97.625,213.664 96.812,214.531C96,215.398 95.508,216.109 95.719,216.109C95.934,216.109 96.32,215.89 96.578,215.624C96.934,215.265 96.996,215.371 96.82,216.046C96.621,216.824 96.766,216.949 97.879,216.949C99.836,216.949 102.953,213.746 106.008,208.601C106.238,208.218 106.938,207.226 107.562,206.398C108.188,205.574 108.703,204.765 108.703,204.605C108.703,204.296 110.242,201.996 111.035,201.121C111.293,200.839 111.621,199.96 111.77,199.171C112.004,197.898 113.676,195.656 113.672,196.613C113.672,197.562 111.496,205.859 111.156,206.214C110.422,206.984 110.719,213.871 111.605,216.531C113.938,223.55 116.426,225.081 120.379,221.925C122.746,220.031 123.344,217.914 123.129,212.195C122.973,208.066 122.809,207.175 121.906,205.57C119.645,201.554 119.332,200.05 119.867,195.742C120.168,193.335 120.258,189.507 120.102,185.812C119.965,182.507 119.961,179.914 120.102,180.054C120.234,180.191 120.398,180.753 120.461,181.3C120.523,181.843 120.68,182.578 120.805,182.921C120.93,183.269 121.266,184.593 121.551,185.863C122.188,188.683 122.898,190.16 124.227,191.414C124.785,191.941 125.688,193.23 126.238,194.281C126.785,195.328 127.426,196.558 127.664,197.011C128.035,197.718 129.355,203.242 131.102,211.382C131.387,212.699 131.797,213.585 132.129,213.585C132.746,213.585 137.129,207.593 138.457,204.941C139.715,202.421 140.75,196.699 140.5,193.671C140.07,188.531 139.055,186.804 132.859,180.679C128.66,176.527 126.715,174.238 125.031,171.48C123.801,169.46 122.789,167.664 122.789,167.488C122.789,167.312 121.949,165.851 120.926,164.242C119.898,162.632 119.062,161.156 119.062,160.96C119.062,160.679 117.797,157.812 116.238,154.57C116.129,154.335 117.23,155.351 118.688,156.82C121.887,160.042 126.141,162.331 128.996,162.359C130.027,162.371 131.617,162.648 132.527,162.98C133.441,163.316 134.492,163.589 134.863,163.593C135.238,163.597 136.645,164.347 137.992,165.257C140.484,166.945 141.539,168.324 144.477,173.749C146.789,178.015 149.156,179.66 150.711,178.081C151.277,177.507 151.258,177.234 150.508,175.46C149.762,173.699 148.836,170.457 148.199,167.378C148.078,166.804 147.629,165.562 147.195,164.621C146.762,163.683 146.406,162.738 146.402,162.523C146.402,162.304 146.031,161.656 145.582,161.078C145.129,160.503 143.902,158.847 142.855,157.402C139.391,152.624 129.785,145.925 124.59,144.66C123.488,144.39 122.211,143.945 121.754,143.671C120.383,142.843 116.504,141.394 114.297,140.89C111.91,140.343 107.656,138.953 106.574,138.363C105.879,137.988 103.316,134.554 103.316,133.999C103.316,133.859 103.719,133.964 104.211,134.23C106.309,135.371 113.059,136.285 120.926,136.503C125.055,136.621 125.719,136.753 127.973,137.91C129.34,138.613 131.484,139.644 132.734,140.199C135.477,141.414 138.926,144.136 141.672,147.249C146.52,152.746 148.984,156.863 150.957,162.761C152.188,166.445 152.582,167.191 153.352,167.304C154.574,167.48 155.41,165.792 154.738,164.519C154.402,163.882 154.406,162.789 154.75,160.441C155.117,157.941 155.105,156.843 154.703,155.48C154.414,154.515 153.902,152.785 153.562,151.628C153.219,150.472 152.148,147.828 151.176,145.746C150.203,143.667 148.668,140.351 147.762,138.374C144.266,130.761 140.656,127.308 132.895,124.167C129.75,122.89 127.688,122.421 119.891,121.203C112.828,120.101 111.078,119.914 107.844,119.914C104.027,119.914 96.098,119.253 92.336,118.621C90.969,118.394 88.426,118.132 86.684,118.042C82.863,117.847 81.648,117.261 78.648,114.171C77.391,112.874 76.309,111.89 76.246,111.98C76.184,112.07 75.781,112.992 75.352,114.031C74.227,116.761 73.312,117.624 70.223,118.874C68.711,119.488 65.797,120.812 63.746,121.824C61.695,122.831 58.289,124.261 56.18,124.996C45.68,128.652 36.465,138.546 33.066,149.816C32.695,151.042 32.141,152.71 31.836,153.519C30.438,157.195 30.07,164.703 31.043,169.691L31.039,169.691ZM32.641,157.871C33.676,151.914 36.66,144.152 39.285,140.597C42.102,136.785 43.875,134.886 47.152,132.207C51.074,128.992 52.371,128.285 58.359,126.121C60.863,125.214 63.195,124.234 63.535,123.941C64.156,123.41 71.223,120.242 72.93,119.726C74.027,119.398 76.797,116.371 76.797,115.503C76.797,115.156 76.863,114.874 76.945,114.874C77.027,114.874 78.012,115.804 79.133,116.941C80.258,118.081 81.637,119.105 82.195,119.214C84.672,119.71 97.734,120.929 108.082,121.624C116.586,122.199 115.754,122.101 125.277,123.644C127.98,124.085 133.387,125.917 136.184,127.343C139.473,129.015 143.848,133.828 145.863,137.976C149.848,146.183 151.391,149.82 152.223,152.945C153.125,156.328 153.328,160.953 152.609,161.683C152.352,161.941 152.211,161.796 152.211,161.285C152.211,160.046 149.102,153.964 147.352,151.769C141.918,144.96 140.652,143.574 138.18,141.718C136.664,140.585 134.59,139.253 133.562,138.757C132.539,138.265 130.289,137.16 128.57,136.304L125.438,134.746L118.004,134.484C110.891,134.238 109.418,134.007 103.832,132.285C103.32,132.124 102.902,131.831 102.902,131.624C102.902,130.937 102.105,131.249 101.648,132.117C101.316,132.742 101.32,133.363 101.656,134.394C102.195,136.054 104.664,139.46 105.758,140.05C106.176,140.277 109.199,141.214 112.477,142.136C115.758,143.054 119.652,144.359 121.133,145.035C122.613,145.71 124.508,146.39 125.34,146.542C126.172,146.695 127.078,147.097 127.359,147.437C127.637,147.777 128.051,148.058 128.277,148.058C129.086,148.058 138.172,154.523 139.484,156.031C143.945,161.164 144.633,162.289 146.867,168.136C147.07,168.667 147.238,169.749 147.238,170.546C147.238,171.339 147.594,172.937 148.027,174.097C148.461,175.253 148.648,176.203 148.441,176.203C148.012,176.203 145.578,172.906 145.578,172.316C145.578,172.097 144.574,170.378 143.348,168.496C140.211,163.683 136.59,161.554 130.117,160.707C124.543,159.98 122.613,158.648 114.93,150.226C112.996,148.109 111.191,146.378 110.914,146.378C109.766,146.378 109.969,147.378 111.527,149.441C112.438,150.644 113.77,152.953 114.488,154.57C115.207,156.187 115.973,157.835 116.188,158.238C116.398,158.64 116.574,159.261 116.574,159.624C116.574,159.984 116.859,160.839 117.207,161.519C117.555,162.203 117.688,162.761 117.504,162.761C117.32,162.761 116.961,162.191 116.703,161.499C116.445,160.804 115.953,160.238 115.613,160.238C115.207,160.238 115.066,159.96 115.207,159.425C115.32,158.976 115.117,158.179 114.754,157.652C114.387,157.124 114.09,156.242 114.09,155.691C114.09,154.949 113.918,154.753 113.434,154.945C113.074,155.081 112.605,155.199 112.398,155.199C112.188,155.199 112.016,155.949 112.016,156.863C112.016,159.46 110.457,163.113 108.383,165.359C107.316,166.511 105.094,168.16 103.16,169.222C99.824,171.058 99.207,171.281 93.578,172.679C89.848,173.609 87.262,174.917 85.473,176.785C83.922,178.402 83.707,178.789 80.574,185.578C77.656,191.906 75.242,193.949 73.281,191.749C72.641,191.035 72.578,190.464 72.824,187.656C72.984,185.859 73.367,183.636 73.676,182.71C75.832,176.296 83.297,168.636 91.441,164.492C93.77,163.308 95.855,162.331 96.074,162.324C96.297,162.316 97.227,161.945 98.137,161.499C99.047,161.054 100.02,160.683 100.297,160.675C100.867,160.656 103.637,159.406 104.516,158.769C104.832,158.539 105.98,157.496 107.066,156.453C108.691,154.89 109.086,154.214 109.332,152.574C109.898,148.73 109.469,147.808 105.121,143.57C102.715,141.226 100.934,139.804 100.582,139.941C100.133,140.117 100,141.207 100,144.746C100,148.539 99.848,149.652 99.121,151.222C97.934,153.785 95.168,156.148 91.582,157.66C82.09,161.667 75.711,164.96 72.969,167.269C70.832,169.066 66.852,174.128 66.852,175.046C66.852,175.394 62.77,185.097 62.512,185.363C62.441,185.433 62.043,184.394 61.625,183.05C61.059,181.234 60.863,179.273 60.855,175.363C60.844,168.406 62.055,164.21 65.133,160.519C66.258,159.171 67.539,157.816 67.977,157.503C70.289,155.863 76.832,152.984 81.77,151.437C84.848,150.472 87.922,149.425 88.605,149.109C89.289,148.792 90.316,148.406 90.887,148.246C92.484,147.796 95.613,144.308 96.266,142.246C97.328,138.886 95.402,131.749 92.645,128.839C92.133,128.3 91.715,127.687 91.715,127.484C91.715,127.031 90.543,126.632 88.484,126.378C87.641,126.273 85.863,126.015 84.539,125.8C80.203,125.101 71.105,126.781 65.5,129.312C61.289,131.21 55.371,136.8 52.762,141.335C51.766,143.07 49.707,145.82 48.188,147.445C46.641,149.105 45.203,151.089 44.918,151.96C44.641,152.816 44.25,153.519 44.047,153.519C42.957,153.519 42.609,147.238 43.66,146.581C44.352,146.148 46.598,141.761 46.344,141.343C45.84,140.511 43.422,140.89 42.094,142.011C38.609,144.937 36.789,152.081 36.863,162.55C36.926,171.66 38.465,179.671 40.781,182.968C41.234,183.613 42.055,185.144 42.605,186.367C43.152,187.593 44.176,189.585 44.879,190.8C45.578,192.011 46,193.003 45.82,193.003C45.637,193.003 44.43,191.917 43.137,190.589C39.625,186.98 33.816,175.039 33.035,169.82C32.887,168.824 32.609,167.726 32.418,167.378C31.875,166.394 31.988,161.628 32.641,157.871ZM87.051,205.539C90.594,202.046 97.973,197.683 102.832,196.21C105.879,195.285 110.84,192.683 112.367,191.203C113.133,190.46 114.199,188.91 114.742,187.753C116.184,184.664 118.324,175.246 117.992,173.453C117.684,171.781 117.016,171.109 116.938,172.394C116.859,173.695 116.832,173.761 115.715,175.57C115.141,176.496 114.07,178.511 113.336,180.054C112.441,181.921 111.258,183.531 109.781,184.886C106.113,188.242 97.43,192.23 92.551,192.796C91.074,192.968 89.137,193.371 88.238,193.691C87.344,194.011 86.52,194.179 86.41,194.066C86.297,193.957 86.523,193.019 86.914,191.988C88.09,188.871 92.809,184.503 96.984,182.679C98.301,182.105 99.75,181.449 100.207,181.222C100.664,180.999 102.949,180.16 105.281,179.359C112.07,177.035 114.367,175.581 115.812,172.71C116.875,170.597 117.777,166.957 117.812,164.648L117.836,162.968L118.637,164.019C119.074,164.597 120.32,166.675 121.398,168.64C122.477,170.605 124.047,173.253 124.887,174.527C126.395,176.808 134.133,185.023 134.777,185.023C136.016,185.023 138.949,191.757 138.949,194.601C138.949,196.761 137.711,202.73 137.043,203.804C136.723,204.316 136.465,204.992 136.465,205.3C136.465,206.175 132.762,210.386 132.566,209.734C132.477,209.429 131.793,206.531 131.051,203.296C129.574,196.843 127.488,191.968 125.312,189.878C123.832,188.453 123.52,187.554 122.023,180.402C121.215,176.535 120.762,175.152 120.309,175.152C118.609,175.152 117.934,180.41 118.391,190.062C118.418,190.64 118.277,193.316 118.082,196.011L117.723,200.91L119.512,204.831C121.121,208.359 121.316,209.144 121.473,212.593C121.672,217.097 121.176,219.003 119.414,220.503C117.867,221.824 116.574,221.855 115.414,220.609C114.512,219.632 113.023,215.499 112.594,212.773C112.297,210.882 112.965,206.32 114.137,202.246C115.691,196.839 115.605,193.843 113.891,193.843C113.203,193.843 111.094,195.933 110.492,197.214C110.051,198.152 110,198.171 109.973,197.394C109.918,195.695 107.797,194.859 106.555,196.05C106.254,196.339 105.301,197.109 104.438,197.761C103.574,198.417 102.426,199.644 101.879,200.492C99.945,203.507 95.508,207.496 92.23,209.164C89,210.808 84.668,210.499 84.668,208.624C84.668,208.218 85.742,206.831 87.051,205.539ZM103.473,208.23C105.133,205.914 105.746,205.382 104.934,206.972C104.152,208.492 99.824,214.398 99.477,214.414C99.164,214.425 100.328,212.624 103.473,208.23ZM60.648,112.152C60.91,112.312 61.301,112.269 61.516,112.05C62.02,111.539 61.512,110.167 60.895,110.374C60.246,110.593 60.078,111.792 60.648,112.152ZM63.711,114.347C64.27,115.558 65.777,115.578 66.602,114.386C67.473,113.128 66.789,111.933 65.195,111.933C63.734,111.933 63.086,112.988 63.711,114.347ZM64.781,113.613C65.008,113.613 65.195,113.812 65.195,114.058C65.195,114.3 65.008,114.386 64.781,114.242C64.551,114.101 64.367,113.898 64.367,113.796C64.367,113.695 64.551,113.613 64.781,113.613ZM67.535,110.804C68.102,111.382 68.98,111.081 68.844,110.359C68.77,109.953 68.445,109.621 68.125,109.621C67.469,109.621 67.098,110.363 67.535,110.804ZM79.883,231.632C80.398,232.062 80.648,232.066 81.148,231.652C81.488,231.363 81.77,230.984 81.77,230.804C81.77,230.16 80.363,229.953 79.809,230.515C79.328,231.007 79.34,231.175 79.883,231.632ZM87.453,231.542C87.586,231.921 87.852,231.945 88.434,231.632C89.457,231.074 89.453,230.39 88.422,230.39C87.512,230.39 87.18,230.777 87.453,231.542ZM90.602,233.074C92.324,233.542 92.957,233.367 92.957,232.417C92.957,231.917 92.656,231.171 92.293,230.761C91.668,230.062 91.586,230.058 90.906,230.73C89.707,231.917 89.59,232.796 90.602,233.074ZM160.914,132.558C162.055,133.73 163.582,135.57 164.301,136.648C166.219,139.511 167.559,141.093 168.32,141.39C169.215,141.738 170.441,141.054 170.441,140.203C170.441,138.82 165.52,131.628 162.809,129.05C161.078,127.406 160.176,127.128 159.336,127.98C158.332,128.996 158.82,130.414 160.914,132.558ZM163.824,132.515C165.176,134.015 166.293,135.433 166.301,135.667C166.312,135.898 166.875,136.828 167.551,137.734C168.227,138.64 168.688,139.472 168.574,139.589C168.461,139.703 168.316,139.718 168.254,139.621C165.273,135.144 164.215,133.675 162.91,132.21C162.039,131.234 161.332,130.289 161.344,130.109C161.352,129.933 162.469,131.015 163.824,132.515ZM162.004,159.949C162.164,160.109 162.633,160.238 163.051,160.238C163.879,160.238 164.09,159.203 163.355,158.746C162.828,158.414 161.582,159.519 162.004,159.949ZM165.746,160.378C166.125,160.765 167.633,160.718 168.281,160.304C169.059,159.804 168.199,157.718 167.219,157.718C165.883,157.718 164.891,159.511 165.746,160.378ZM166.719,168.433C167.785,168.777 168.145,168.492 167.801,167.578C167.516,166.828 166.254,166.886 165.996,167.66C165.91,167.929 166.234,168.277 166.719,168.433ZM22.828,43.124C23.562,43.324 25.438,42.367 28.73,40.113C30.668,38.789 33.09,37.269 34.113,36.742C36.316,35.605 37.344,35.785 43.441,38.374C45.492,39.246 48.336,40.304 49.758,40.726C51.184,41.148 52.348,41.628 52.348,41.792C52.348,41.953 51.184,42.609 49.758,43.249C48.336,43.886 46.609,44.824 45.926,45.331C45.242,45.835 40.77,48.289 35.98,50.781C31.195,53.273 26.949,55.609 26.547,55.972C25.664,56.765 25.371,56.488 24.398,53.964C23.996,52.925 23.586,51.863 23.484,51.605C23.383,51.351 25.129,50.089 27.363,48.812C35.379,44.214 41.309,40.941 41.617,40.941C42.059,40.941 43.234,39.699 43.234,39.234C43.234,38.378 41.684,38.945 38.09,41.109C36.02,42.351 32.648,44.234 30.598,45.289C28.543,46.339 26.074,47.695 25.102,48.3C23.152,49.511 23.062,49.449 22.809,46.613C22.516,43.394 22.52,43.042 22.828,43.124ZM22.777,35.749L23.043,33.8L25.215,33.8C26.41,33.8 28.758,34.117 30.43,34.499C32.961,35.078 33.348,35.273 32.727,35.652C32.312,35.906 30.852,36.937 29.473,37.941C27.195,39.605 23.391,41.781 22.766,41.781C22.438,41.781 22.445,38.218 22.777,35.749ZM25.559,27.523C26.27,26.035 27.832,23.746 29.027,22.433C31.504,19.722 35.672,16.331 36.051,16.718C36.445,17.121 34.152,26.187 33.039,28.628C32.492,29.828 32.047,31.316 32.047,31.933C32.047,32.914 31.926,33.019 31.113,32.749C30.602,32.581 28.73,32.351 26.957,32.238C23.234,31.999 23.305,32.23 25.559,27.523ZM29.352,55.917C30.949,55.019 35.238,52.73 38.887,50.831C42.535,48.933 46.266,46.917 47.172,46.347C48.082,45.777 50.105,44.699 51.664,43.957C54.367,42.667 54.562,42.632 55.77,43.242C56.465,43.593 57.336,43.882 57.707,43.882C58.648,43.882 60.223,45.074 60.223,45.785C60.223,46.121 59.969,46.281 59.645,46.152C59.105,45.941 53.5,48.867 49.656,51.363C48.746,51.953 47.066,52.941 45.926,53.558C43.246,55.015 40.496,56.546 38.676,57.609C37.879,58.074 35.922,59.167 34.324,60.039C32.73,60.91 30.957,61.949 30.387,62.347C28.273,63.82 28.008,63.746 27.109,61.398C25.879,58.183 26.043,57.781 29.352,55.917ZM30.688,100.277C31.867,98.73 32.281,98.589 32.551,99.644C32.789,100.57 32.516,101.429 31.988,101.429C31.77,101.429 30.902,101.902 30.062,102.48C28.168,103.785 27.586,103.831 28.758,102.585C29.246,102.066 30.113,101.027 30.688,100.277ZM31.426,63.48C41.055,57.675 60.191,47.074 60.492,47.378C60.949,47.843 61.625,52.441 61.254,52.566C61.027,52.64 59.258,53.765 57.32,55.062C54.41,57.007 47.055,61.652 44.055,63.433C43.652,63.671 43.07,64.07 42.762,64.316C42.449,64.558 40.52,65.66 38.469,66.761C36.418,67.859 34.047,69.308 33.199,69.98L31.66,71.203L31.07,70.249C28.562,66.203 28.617,65.171 31.426,63.48ZM34.109,70.98C35.016,70.402 35.852,69.925 35.965,69.925C36.082,69.925 37.195,69.265 38.441,68.457C39.688,67.648 40.801,66.988 40.914,66.988C41.027,66.988 45.285,64.355 50.375,61.14C61.234,54.273 61.789,53.98 62.316,54.828C62.523,55.164 62.699,55.847 62.703,56.351C62.703,56.859 62.887,57.746 63.105,58.328C63.484,59.335 63.273,59.55 58.863,62.621C52.434,67.097 52.711,66.91 47.172,70.519C39.078,75.792 36.16,77.597 36.004,77.433C34.863,76.238 32.488,72.953 32.477,72.558C32.469,72.273 33.203,71.562 34.109,70.98ZM34.324,96.218L35.363,95.167L36.219,96.871C36.691,97.804 37.016,98.601 36.945,98.636C36.871,98.671 36.395,98.937 35.883,99.226C34.605,99.953 34.312,99.894 33.793,98.804C33.156,97.464 33.172,97.386 34.324,96.218ZM34.078,30.113C34.512,28.792 35.348,25.855 35.941,23.589C36.531,21.32 37.281,19.191 37.609,18.859C38.008,18.457 38.133,17.773 37.98,16.824C37.762,15.46 37.844,15.351 39.766,14.374C40.875,13.808 42.867,12.734 44.191,11.98C45.516,11.226 46.691,10.703 46.809,10.824C46.926,10.941 46.43,13.085 45.711,15.593C44.992,18.097 44.035,21.566 43.59,23.3C43.145,25.031 42.23,28.066 41.555,30.042C40.883,32.015 40.332,33.968 40.332,34.378C40.332,34.789 40.102,35.062 39.816,34.984C34.789,33.628 33.289,33.14 33.289,32.855C33.289,32.667 33.645,31.433 34.078,30.113ZM40.988,88.605C46.617,82.074 54.609,73.113 57.527,70.062C59.352,68.16 61.125,66.874 64.16,65.261C66.438,64.054 68.863,62.765 69.547,62.398C70.434,61.925 72.266,61.695 75.973,61.597C82.363,61.429 84.574,62.113 87.98,65.304C89.215,66.46 90.461,67.406 90.746,67.406C91.035,67.406 91.457,67.761 91.684,68.195C91.914,68.628 92.898,69.39 93.875,69.894C94.852,70.394 96.395,71.265 97.309,71.828C98.219,72.394 99.297,72.855 99.707,72.859C100.113,72.863 100.953,73.246 101.57,73.707C102.953,74.734 111.199,78.269 113.469,78.8C114.379,79.015 116.43,79.652 118.023,80.218C119.621,80.781 122.23,81.464 123.824,81.734C127.609,82.371 143.988,82.57 146.406,82.011C147.434,81.773 149.672,81.499 151.379,81.402L154.488,81.226L156.766,85.554C158.02,87.933 159.438,90.917 159.922,92.191C161.055,95.179 164.016,100.855 166.391,104.581C170.535,111.089 171.43,113.527 172.93,122.433C173.379,125.089 174.098,129.343 174.531,131.886C174.965,134.425 175.434,137.355 175.574,138.398L175.832,140.285L174.793,137.765C174.227,136.378 173.758,135.179 173.758,135.097C173.758,135.015 173.516,135.039 173.223,135.152C172.852,135.296 172.465,134.343 171.938,131.941C171.125,128.273 170.645,127.054 170.012,127.054C169.43,127.054 169.52,128.499 170.273,131.117C171.055,133.847 170.734,134.597 169.785,132.265C169.414,131.363 168.812,130.281 168.445,129.863C168.012,129.367 167.766,128.269 167.738,126.71C167.711,124.933 167.406,123.789 166.551,122.222C164.195,117.937 162.883,117.953 164.973,122.246C165.699,123.742 166.293,125.296 166.285,125.695C166.273,126.32 166.207,126.304 165.816,125.581C165.566,125.121 164.832,124.175 164.188,123.48C163.543,122.789 162.727,121.378 162.367,120.351C161.309,117.308 159.105,113.191 158.539,113.191C157.863,113.191 157.832,113.027 159.066,116.105C159.648,117.558 160.051,118.824 159.957,118.917C159.562,119.32 154.391,113.222 154.168,112.097C153.898,110.742 151.605,107.308 150.965,107.308C150.266,107.308 150.5,108.374 151.672,110.511L152.793,112.562L151.242,111.195C150.391,110.445 149.547,109.831 149.371,109.831C149.191,109.831 148.719,109.121 148.312,108.253C147.328,106.14 144.785,102.269 144.383,102.269C143.543,102.269 143.652,102.96 144.824,105.066C145.523,106.32 145.996,107.449 145.875,107.57C145.758,107.691 144.742,107.164 143.625,106.394C142.109,105.359 141.289,104.374 140.418,102.566C139.234,100.109 138,98.929 137.492,99.761C137.348,99.999 137.621,100.874 138.105,101.707C138.59,102.535 138.91,103.292 138.816,103.382C138.727,103.476 137.613,103.027 136.344,102.386C134.609,101.507 133.863,100.839 133.34,99.679C132.441,97.703 130.129,95.429 129.207,95.613C128.621,95.734 128.797,96.132 130.188,97.835C131.117,98.98 131.832,99.964 131.77,100.027C131.555,100.246 128.59,99.187 128.59,98.894C128.59,98.414 123.578,92.187 123.191,92.187C122.273,92.187 122.496,93.124 123.848,94.917C124.656,95.996 125.266,97.031 125.195,97.214C125.125,97.402 124.117,97.124 122.949,96.601C121.211,95.816 120.512,95.156 119.039,92.882C118.055,91.359 116.969,90.007 116.633,89.878C115.816,89.558 115.191,90.593 115.871,91.136C116.691,91.792 118.348,94.312 118.113,94.55C117.996,94.667 117.238,94.636 116.43,94.484C115.199,94.249 114.684,93.769 113.246,91.539C111.301,88.511 110.59,87.792 109.941,88.199C109.629,88.398 109.703,88.82 110.184,89.566C110.566,90.16 111.246,91.273 111.691,92.039L112.504,93.429L110.5,92.812C109.395,92.476 108.449,92.195 108.395,92.191C108.34,92.191 107.715,91.148 107.008,89.878C105.582,87.312 105.215,86.964 104.32,87.312C103.816,87.507 103.91,87.859 104.816,89.246C105.426,90.179 105.809,91.062 105.668,91.203C105.527,91.347 104.57,91.222 103.543,90.933C101.996,90.496 101.375,89.984 99.906,87.941C98.934,86.585 97.918,85.472 97.652,85.472C96.68,85.464 96.852,86.554 98.066,88.093C98.75,88.957 99.23,89.73 99.137,89.804C99.043,89.878 98.066,89.859 96.969,89.757C95.184,89.597 94.84,89.394 93.75,87.839C91.828,85.097 90.809,84.113 90.359,84.574C90.098,84.835 90.441,85.664 91.32,86.902C92.066,87.96 92.582,88.925 92.461,89.05C92.34,89.175 91.469,89.152 90.531,88.999C89.047,88.757 88.633,88.429 87.359,86.484C85.641,83.859 85.332,83.609 84.723,84.351C84.383,84.769 84.594,85.347 85.59,86.722L86.91,88.542L85.066,88.246C83.566,88.007 82.918,87.597 81.633,86.078C80.762,85.05 79.781,84.207 79.457,84.207C78.633,84.207 78.715,84.554 79.902,86.132C80.473,86.89 80.941,87.617 80.941,87.749C80.941,87.878 80.242,87.984 79.387,87.976C77.965,87.964 77.684,87.749 76.07,85.457C74.375,83.039 73.48,82.355 73.48,83.484C73.48,83.777 73.734,84.394 74.039,84.847C74.348,85.304 74.926,86.195 75.332,86.831L76.062,87.988L73.477,87.988C71.266,87.988 70.965,87.898 71.395,87.374C71.797,86.882 71.637,86.441 70.547,85.066C69.113,83.257 68.508,82.953 68.508,84.039C68.508,84.847 69.801,87.148 70.258,87.148C70.434,87.148 70.582,87.335 70.582,87.566C70.582,87.796 69.965,87.988 69.211,87.988C68.059,87.988 67.633,87.687 66.527,86.097C64.719,83.496 63.496,83.664 64.988,86.308C65.812,87.773 65.777,87.863 64.262,88.109C63.105,88.296 62.734,88.117 61.637,86.824C60.73,85.757 60.152,85.402 59.641,85.605C58.969,85.863 58.98,85.964 59.777,86.992C60.906,88.449 60.867,88.664 59.395,89.183C58.43,89.523 58.148,89.499 58.148,89.081C58.148,88.128 56.867,85.886 56.324,85.886C55.312,85.886 55.309,86.417 56.309,88.023C56.867,88.917 57.32,89.73 57.32,89.828C57.32,89.925 56.762,90.203 56.078,90.445C54.945,90.843 54.781,90.785 54.254,89.749C53.938,89.124 53.285,88.253 52.805,87.816C51.945,87.027 51.934,87.027 51.934,87.976C51.934,88.507 52.305,89.546 52.758,90.289L53.582,91.636L52.555,92.113C51.637,92.535 51.469,92.464 50.93,91.41C50.062,89.707 49.117,88.996 48.523,89.597C48.164,89.964 48.27,90.386 48.953,91.328C50.133,92.945 50.102,93.371 48.762,93.71C47.848,93.945 47.469,93.753 46.512,92.566C45.5,91.308 45.324,91.23 45.07,91.902C44.91,92.32 45.023,93.128 45.324,93.695C45.949,94.874 45.633,95.355 43.961,95.773C42.891,96.042 42.762,95.91 41.703,93.492C40.633,91.05 39.789,90.304 39.391,91.453C39.289,91.742 39.75,93.085 40.418,94.437C41.086,95.789 41.57,96.941 41.5,96.999C41.426,97.058 40.773,97.308 40.047,97.554C39.066,97.89 38.625,97.878 38.344,97.511C37.863,96.898 37.094,94.718 37.051,93.855C37.031,93.503 38.805,91.14 40.988,88.605ZM39.863,77.007C42.664,75.316 51.566,69.507 56.492,66.16C61.27,62.91 61.441,62.828 59.996,64.488C59.301,65.285 57.996,66.785 57.094,67.824C53.867,71.542 48.824,76.707 47.938,77.195C43.66,79.562 40.773,81.378 40.602,81.804C40.473,82.128 39.832,81.718 38.883,80.718C37.18,78.91 37.27,78.574 39.863,77.007ZM40.719,80.199C41.176,80.488 41.672,79.824 41.289,79.437C40.895,79.039 40.332,79.113 40.332,79.562C40.332,79.781 40.508,80.066 40.719,80.199ZM44.109,25.667C45.5,20.785 46.777,16.21 46.945,15.503C47.117,14.796 47.582,13.71 47.984,13.089C48.387,12.464 48.617,11.566 48.492,11.093C47.973,9.074 52.57,7.621 68.301,4.839C83.629,2.132 105.125,0.984 112.637,2.48C114.461,2.839 116.746,3.136 117.715,3.136C118.684,3.136 119.477,3.32 119.477,3.542C119.477,3.765 119.082,4.945 118.605,6.167C118.125,7.39 117.371,9.789 116.926,11.503C116.477,13.214 114.906,17.437 113.434,20.89C111.961,24.339 110.402,28.417 109.973,29.957C109.543,31.492 108.867,33.738 108.473,34.949L107.754,37.144L106.258,35.859C104.152,34.046 101.656,31.195 101.656,30.601C101.656,29.792 104.723,21.242 106.312,17.613C107.121,15.773 108.293,12.664 108.918,10.699C109.543,8.734 110.23,6.902 110.445,6.624C110.934,5.999 110.715,4.187 110.152,4.187C109.926,4.187 108.891,6.738 107.855,9.859C106.816,12.976 105.676,16.097 105.312,16.789C104.953,17.484 104.148,19.371 103.531,20.988C102.91,22.605 101.969,25.058 101.438,26.441C100.906,27.82 100.301,29.011 100.086,29.081C99.574,29.253 92.961,21.484 91.68,19.207C91.129,18.226 90.445,17.425 90.16,17.421C89.875,17.421 89.641,17.21 89.641,16.957C89.641,16.191 92.988,6.777 93.613,5.777C94.305,4.679 94.379,3.558 93.762,3.558C93.199,3.558 91.965,6.386 90.012,12.152C88.328,17.14 87.766,17.835 84.809,18.644C83.859,18.902 82.551,19.394 81.906,19.734C80.301,20.581 79.539,20.542 79.887,19.624C80.043,19.218 80.363,18.039 80.605,16.999C81.527,13.035 82.711,9.179 83.469,7.675C84.426,5.769 84.461,5.132 83.598,5.312C82.867,5.464 81.367,9.324 79.875,14.898C78.082,21.601 78.32,21.312 72.121,24.324C66.625,26.996 62.766,28.761 62.414,28.761C62.074,28.761 62.781,26.089 64.59,20.57C65.57,17.566 66.75,13.656 67.207,11.882C67.664,10.105 68.359,8.16 68.75,7.554C69.262,6.765 69.336,6.328 69.012,5.999C68.316,5.296 67.395,5.886 67.145,7.199C66.867,8.675 63.328,20.624 62.461,23.011C62.109,23.98 61.539,25.808 61.191,27.081C60.844,28.351 60.477,29.476 60.375,29.585C60.27,29.691 59.324,29.878 58.27,30.003C56.684,30.191 56.227,30.449 55.648,31.492C54.883,32.867 54.957,33.468 55.848,33.124C56.793,32.753 56.969,34.367 56.266,36.999C55.902,38.359 55.539,39.757 55.461,40.101C55.379,40.449 55.301,40.757 55.281,40.785C55.266,40.812 54.086,40.41 52.66,39.89C49.512,38.734 49.402,38.374 50.82,33.652C51.383,31.769 52.535,27.679 53.379,24.562C54.223,21.441 55.57,16.871 56.379,14.402C57.73,10.265 57.906,8.597 56.988,8.597C56.637,8.597 55.855,11.148 52.363,23.718C51.434,27.07 50.422,30.566 50.117,31.492C49.809,32.414 49.215,34.257 48.797,35.585C48.258,37.296 47.824,38.003 47.32,38.003C46.016,38.003 41.578,35.812 41.578,35.171C41.578,34.828 42.715,30.55 44.109,25.667ZM69.875,24.14C70.168,24.14 70.609,23.433 70.852,22.566C72.777,15.66 74.523,10.132 75.371,8.234C76.422,5.882 76.688,3.976 75.957,3.976C75.727,3.976 75.383,4.402 75.191,4.921C74.457,6.957 72.984,11.519 71.789,15.492C71.098,17.781 70.266,20.179 69.938,20.828C69.191,22.285 69.156,24.14 69.875,24.14ZM94.566,22.64C95.402,23.164 97.371,19.132 99.617,12.296C100.551,9.453 101.59,6.691 101.926,6.156C102.582,5.117 102.547,3.535 101.863,3.507C101.289,3.484 101.09,3.964 99.398,9.437C98.574,12.093 97.07,16.042 96.051,18.207C93.973,22.624 94.07,22.331 94.566,22.64ZM43.258,81.671C43.953,81.167 44.633,80.867 44.766,80.999C45.16,81.398 43.113,83.296 42.531,83.07C41.785,82.777 41.82,82.707 43.258,81.671ZM56.969,39.05L57.441,37.371L58.199,39.05C58.984,40.792 59.219,42.624 58.656,42.624C58.191,42.624 56.492,41.367 56.496,41.023C56.496,40.863 56.711,39.976 56.969,39.05ZM59.496,31.511C60.238,31.179 62.242,30.351 63.953,29.667C65.66,28.984 70.414,26.82 74.516,24.855C78.621,22.894 83.449,20.8 85.246,20.203C87.043,19.609 88.863,18.804 89.285,18.414C90.012,17.749 90.055,17.757 90.055,18.589C90.055,19.898 91.582,22.398 93.824,24.769C94.918,25.925 97.078,28.285 98.629,30.011C100.184,31.738 103.316,35.066 105.594,37.41C107.875,39.753 110.754,43.027 112,44.683C114.121,47.515 117.402,52.515 117.402,52.921C117.402,53.019 116.926,52.917 116.34,52.695C115.754,52.468 114.77,52.285 114.148,52.285C113.527,52.285 112.281,51.902 111.379,51.433C110.477,50.964 108.434,50.289 106.836,49.933C102.098,48.878 101.875,48.781 101.723,47.671C101.602,46.808 99.57,43.32 98.781,42.624C98.652,42.507 98.055,41.749 97.457,40.941C96.859,40.132 95.898,38.96 95.32,38.331C94.742,37.707 93.773,36.289 93.172,35.183C91.582,32.265 87.039,29.179 84.328,29.179C82.754,29.179 76.434,31.882 73.766,33.699C72.812,34.347 70.914,35.41 69.547,36.058C65.723,37.874 65.555,38.105 65.863,41.164L66.125,43.769L63.898,43.566C62.676,43.457 61.52,43.222 61.332,43.046C60.719,42.48 58.223,34.882 58.188,33.48C58.156,32.32 58.359,32.015 59.496,31.507L59.496,31.511ZM63.625,45.32C64.586,45.472 65.398,45.64 65.434,45.687C65.469,45.734 65.594,48.515 65.715,51.863C65.973,58.91 65.469,58.445 64.676,50.906C64.164,45.999 63.566,44.671 63.074,47.331C62.844,48.581 62.812,48.605 62.762,47.581C62.734,46.96 62.523,46.335 62.293,46.195C61.238,45.531 61.969,45.05 63.625,45.32ZM67.266,45.562C67.523,45.562 67.652,47.371 67.605,50.289C67.539,54.71 67.516,54.828 67.266,52.074C66.828,47.265 66.828,45.562 67.266,45.562ZM70.375,37.511C71.969,36.664 73.414,35.953 73.586,35.933C73.758,35.917 73.895,38.07 73.895,40.718C73.895,44.941 73.816,45.503 73.242,45.281C72.711,45.078 72.602,44.406 72.66,41.828C72.762,37.64 72.742,37.484 72.137,37.687C71.805,37.796 71.543,39.039 71.41,41.085C71.156,45.031 70.422,45.519 70.25,41.859C70.164,40.023 69.973,39.257 69.629,39.374C69.355,39.468 69.098,39.808 69.055,40.136C69.012,40.464 68.855,41.488 68.707,42.406C68.449,43.996 68.402,44.039 67.832,43.246C67.477,42.757 67.281,41.722 67.352,40.734C67.469,39.117 67.582,38.996 70.375,37.511ZM69.855,46.21C70.598,46.371 71.219,46.527 71.234,46.558C71.254,46.589 71.141,47.746 70.984,49.132L70.703,51.656L70.641,49.238C70.594,47.398 70.434,46.824 69.961,46.824C69.457,46.824 69.324,47.57 69.262,50.71L69.184,54.593L68.922,51.023C68.781,49.062 68.629,47.109 68.586,46.683C68.52,46.031 68.707,45.96 69.855,46.21ZM72.84,46.874C73.164,47.203 73.25,50.14 72.945,50.449C72.785,50.613 72.652,49.831 72.652,48.714C72.652,47.597 72.738,46.769 72.84,46.874ZM75.141,47.242C75.367,47.242 75.555,47.433 75.555,47.664C75.555,47.894 75.367,48.081 75.141,48.081C74.91,48.081 74.723,47.894 74.723,47.664C74.723,47.433 74.91,47.242 75.141,47.242ZM79.031,32.71C80.605,31.914 81.926,31.316 81.969,31.378C82.215,31.738 81.613,45.144 81.352,45.144C80.793,45.144 80.461,40.675 80.742,36.933C80.992,33.562 80.957,33.316 80.25,33.457C79.668,33.57 79.484,33.996 79.473,35.277C79.402,42.374 79.23,45.144 78.867,45.144C78.617,45.144 78.453,43.331 78.453,40.546C78.453,38.019 78.285,35.847 78.082,35.718C77.453,35.324 77.211,36.66 77.211,40.511C77.211,43.394 77.074,44.265 76.598,44.453C76.246,44.589 76.086,44.968 76.227,45.335C76.359,45.691 76.27,45.984 76.02,45.984C75.27,45.984 75.02,44.015 75.234,39.843C75.359,37.39 75.277,35.781 75.02,35.617C74.457,35.265 75.559,34.468 79.031,32.71ZM81.938,46.781C84.523,46.07 97.031,48.046 100.641,49.742C102.145,50.449 103.73,51.023 104.168,51.023C105.59,51.023 108.902,52.046 109.242,52.593C109.422,52.886 109.773,53.124 110.016,53.124C110.262,53.124 111.844,53.976 113.531,55.015C115.223,56.054 116.676,56.906 116.762,56.906C116.848,56.906 118.34,57.753 120.074,58.796C121.809,59.835 123.379,60.687 123.562,60.687C125.305,60.687 139.977,69.468 147.922,75.269C149.891,76.703 151.707,77.953 151.957,78.046C152.211,78.136 152.305,78.339 152.164,78.492C151.785,78.91 145.375,79.937 141.852,80.14C138.121,80.359 129.293,79.734 127.555,79.132C126.871,78.894 124.852,78.531 123.07,78.32C121.285,78.109 119.289,77.664 118.629,77.331C117.969,76.999 116.645,76.589 115.68,76.425C114.715,76.261 111.832,75.109 109.273,73.867C106.715,72.624 104.414,71.605 104.164,71.605C103.48,71.605 97.984,68.738 95.855,67.269C94.832,66.562 93,65.027 91.785,63.859C90.57,62.691 89.324,61.593 89.02,61.417C88.32,61.019 82.398,53.695 80.703,51.128C79.105,48.714 79.457,47.468 81.938,46.781ZM94.613,52.636C95.184,52.636 95.418,52.542 95.133,52.425C94.848,52.308 94.379,52.308 94.098,52.425C93.812,52.542 94.043,52.636 94.613,52.636ZM83.328,32.437C83.402,31.253 83.605,30.863 84.152,30.863C84.816,30.863 84.863,31.41 84.734,37.687C84.602,44.136 84.379,45.535 83.566,45.015C83.25,44.816 83.09,36.257 83.328,32.437ZM86.523,31.796C86.578,31.734 86.906,31.792 87.25,31.925C87.738,32.117 87.922,33.16 88.07,36.609C88.18,39.05 88.18,41.968 88.074,43.093C87.906,44.867 87.754,45.144 86.961,45.144C86.047,45.144 86.047,45.128 86.238,38.527C86.344,34.89 86.473,31.859 86.523,31.796ZM89.82,33.64C90.227,33.796 90.477,34.957 90.656,37.507C91.188,45.062 91.176,45.339 90.262,45.472C89.473,45.585 89.43,45.324 89.336,39.499C89.254,34.425 89.336,33.449 89.82,33.64ZM92.391,36.828C92.887,37.331 93.125,38.589 93.277,41.558C93.449,44.91 93.594,45.581 94.125,45.476C94.637,45.378 94.746,44.816 94.66,42.683C94.598,41.128 94.711,40.113 94.934,40.253C95.145,40.386 95.34,41.824 95.371,43.449C95.422,46.3 95.391,46.402 94.43,46.402C92.742,46.402 92.266,46.027 92.418,44.812C92.531,43.917 92.203,39.749 91.77,36.546C91.738,36.324 92.02,36.453 92.391,36.828ZM97.145,43.699C97.59,43.98 97.641,45.562 97.203,45.562C97.031,45.562 96.867,45.093 96.832,44.515C96.801,43.941 96.941,43.574 97.145,43.699ZM98.941,46.402C99.039,46.402 99.238,46.593 99.379,46.824C99.52,47.054 99.438,47.242 99.195,47.242C98.953,47.242 98.758,47.054 98.758,46.824C98.758,46.593 98.84,46.402 98.941,46.402ZM109.762,36.113C110.113,34.957 110.652,32.878 110.961,31.492C111.594,28.671 113.086,24.472 114.473,21.621C115.973,18.535 117.023,15.734 118.027,12.167C118.902,9.046 120.473,4.925 121.285,3.632C121.531,3.238 122.129,3.16 123.352,3.359C125.457,3.707 125.879,4.07 125.352,5.081C124.316,7.07 121.414,16.035 120.27,20.781C119.57,23.667 118.469,27.636 117.824,29.601C116.172,34.621 115.516,36.894 114.641,40.624C114.223,42.414 113.77,43.831 113.629,43.777C113.312,43.644 109.176,38.707 109.145,38.421C109.137,38.308 109.41,37.265 109.762,36.113ZM115.539,42.624C116.133,39.734 118.121,32.667 119.125,29.874C119.805,27.992 120.695,24.937 121.109,23.089C121.945,19.343 123.844,12.621 124.434,11.328C125.641,8.667 126.848,5.078 126.68,4.632C126.527,4.234 127.121,4.203 129.293,4.499C130.84,4.707 132.191,4.968 132.297,5.078C132.504,5.285 130.234,12.265 129.035,15.109C128.645,16.035 128.016,17.828 127.633,19.101C123.449,33.019 117.852,48.503 117.004,48.503C116.336,48.503 114.93,45.296 115.164,44.304C115.297,43.726 115.469,42.968 115.539,42.624ZM118.387,55.277C118.984,55.554 119.477,55.929 119.477,56.113C119.477,56.296 118.926,56.128 118.258,55.738C116.789,54.882 116.871,54.578 118.387,55.277ZM119.035,48.925C119.238,48.117 119.805,46.414 120.293,45.144C121.438,42.171 126.879,26.031 128.578,20.57C129.297,18.257 130.508,14.761 131.273,12.8C132.039,10.835 132.906,8.472 133.199,7.546C133.934,5.226 134.09,5.113 135.98,5.437L137.648,5.722L137.027,7.683C136.688,8.765 136.156,10.499 135.848,11.539C135.539,12.578 134.516,15.414 133.57,17.839C132.629,20.265 131.324,23.855 130.68,25.82C130.031,27.785 129.129,30.335 128.676,31.492C127.637,34.136 124.738,41.937 124.074,43.882C122.434,48.671 121.133,52.855 121.133,53.347C121.133,54.261 121.945,54.507 122.215,53.675C122.352,53.257 122.934,51.589 123.512,49.972C124.086,48.355 124.895,46.089 125.305,44.933C125.715,43.777 126.809,40.847 127.738,38.421C128.664,35.996 129.422,33.8 129.422,33.539C129.422,33.281 129.82,32.148 130.312,31.019C130.805,29.894 131.82,27.175 132.566,24.98C133.312,22.785 134.777,18.734 135.82,15.98C136.863,13.226 137.895,10.289 138.117,9.457C138.848,6.703 139.305,6.374 141.551,6.98C143.797,7.589 143.934,8.046 142.699,10.792C141.488,13.488 137.363,23.999 136.387,26.871C135.918,28.257 134.922,30.999 134.172,32.96C133.418,34.925 132.129,38.398 131.305,40.675C130.48,42.957 129.5,45.414 129.133,46.136C128.172,48.011 125.691,54.488 125.691,55.117C125.691,55.886 124.418,55.765 121.789,54.746C119.906,54.015 119.477,53.667 119.477,52.882C119.477,52.347 119.289,51.796 119.062,51.656C118.559,51.339 118.555,50.839 119.035,48.925ZM124.27,57.925C124.59,58.371 124.746,58.843 124.617,58.972C124.484,59.105 124.117,58.851 123.797,58.406C123.477,57.96 123.32,57.488 123.449,57.355C123.578,57.222 123.949,57.48 124.27,57.925ZM126,58.167C126.172,58.171 126.527,58.644 126.789,59.218C127.055,59.792 127.129,60.265 126.957,60.265C126.785,60.265 126.441,59.839 126.195,59.32C125.625,58.124 125.633,58.164 126,58.167ZM127.559,53.492C127.902,52.48 128.352,51.277 128.559,50.812C130.812,45.796 133.262,39.527 136.113,31.492C136.766,29.644 137.566,27.468 137.891,26.66C138.215,25.851 139.508,22.542 140.762,19.308C142.02,16.074 143.324,12.863 143.664,12.167C144.008,11.476 144.484,10.374 144.727,9.718C145.219,8.394 145.629,8.398 150.047,9.765C151.727,10.281 152.176,10.593 151.98,11.093C151.84,11.453 151.648,12.124 151.559,12.589C151.469,13.05 150.754,14.753 149.969,16.371C149.184,17.988 147.992,20.839 147.32,22.707C146.648,24.574 145.43,27.503 144.609,29.218C143.793,30.929 142.449,33.937 141.629,35.902C140.805,37.867 139.312,40.898 138.312,42.64C137.309,44.378 135.363,48.207 133.988,51.144C132.613,54.081 131.277,56.484 131.023,56.484C130.703,56.484 130.719,56.679 131.07,57.109C131.523,57.66 131.352,57.66 129.57,57.113C128.461,56.773 127.414,56.492 127.246,56.492C126.77,56.48 126.871,55.515 127.559,53.492ZM128.176,58.585C128.406,58.585 128.59,58.785 128.59,59.031C128.59,59.273 128.406,59.359 128.176,59.214C127.949,59.074 127.762,58.871 127.762,58.769C127.762,58.667 127.949,58.585 128.176,58.585ZM129.004,60.054C129.234,60.199 129.418,60.503 129.418,60.734C129.418,60.964 129.234,61.039 129.004,60.894C128.777,60.753 128.59,60.445 128.59,60.214C128.59,59.984 128.777,59.914 129.004,60.054ZM130.766,59.109C131.051,59.203 131.336,59.738 131.398,60.296C131.512,61.285 131.496,61.289 130.883,60.499C130.113,59.511 130.062,58.871 130.766,59.109ZM133.055,60.265C133.77,60.265 135.219,61.617 135.223,62.285C135.223,62.675 135.594,63.609 136.043,64.359C136.496,65.113 136.723,65.726 136.551,65.726C135.727,65.726 134.227,64.187 133.527,62.624C132.668,60.707 132.582,60.265 133.055,60.265ZM135.367,51.656C136.539,49.113 138.383,45.468 139.465,43.554C140.543,41.64 142.16,38.335 143.059,36.203C143.953,34.074 145.633,30.281 146.789,27.773C147.949,25.265 148.895,22.89 148.895,22.496C148.895,22.101 149.539,20.449 150.332,18.824C151.121,17.199 151.969,15.32 152.215,14.648C153.16,12.085 153.668,11.121 154.07,11.136C154.301,11.148 156.352,12.175 158.633,13.421C163.289,15.972 163.32,16.039 161.828,19.73C161.363,20.886 159.742,25.421 158.23,29.812C153.512,43.515 152.539,46.16 151.816,47.242C150.324,49.476 148.57,53.011 147.863,55.226C147.457,56.496 146.684,58.425 146.145,59.515C145.605,60.605 145.164,61.777 145.164,62.117C145.164,63.23 144.445,63.23 141.918,62.117L139.43,61.023L139.957,59.281C140.426,57.738 142.902,51.847 144.578,48.292C144.902,47.601 145.895,45.05 146.777,42.624C147.66,40.195 149.488,35.378 150.84,31.91C152.191,28.445 153.629,24.382 154.031,22.878C154.438,21.378 155.254,19.164 155.848,17.957C156.93,15.761 156.863,14.785 155.684,15.542C155.008,15.98 153.883,18.785 151.988,24.769C151.328,26.851 150.066,30.347 149.184,32.542C148.301,34.738 146.754,38.769 145.742,41.503C143.84,46.664 143.488,47.492 140.137,54.757C139.027,57.16 138.121,59.378 138.121,59.695C138.121,60.488 137.656,60.417 134.996,59.226C132.258,57.996 132.234,58.437 135.367,51.656ZM139.215,62.859C139.629,62.941 140.086,63.742 140.383,64.886C140.652,65.925 141.02,67.249 141.203,67.828C141.773,69.621 140.934,68.367 139.719,65.617C138.336,62.492 138.371,62.691 139.215,62.859ZM142.641,64.331C143.164,64.472 143.586,65.179 143.902,66.457C144.164,67.511 144.664,68.929 145.012,69.609C145.754,71.066 145.559,71.445 144.438,70.734C143.992,70.449 143.238,69.066 142.762,67.656C141.672,64.437 141.66,64.074 142.641,64.331ZM145.414,65.421C145.555,65.558 145.566,65.921 145.449,66.226C145.316,66.558 145.219,66.46 145.199,65.972C145.18,65.527 145.277,65.281 145.414,65.421ZM148.016,58.925C148.672,57.468 149.441,55.542 149.723,54.652C150.004,53.757 150.984,51.683 151.902,50.042C154.336,45.687 154.418,45.472 160.672,27.289C164.191,17.058 164.246,16.925 164.586,17.089C166.125,17.828 169.188,19.8 169.191,20.054C169.195,20.23 168.758,21.085 168.219,21.949C167.68,22.812 166.738,25.031 166.129,26.874C164.91,30.57 161.133,40.843 160.266,42.831C159.965,43.527 158.891,46.078 157.879,48.503C156.867,50.929 154.688,55.707 153.027,59.117C149.77,65.831 149.816,65.789 147.305,64.179C146.164,63.449 146.242,62.871 148.016,58.925ZM147.652,71.816C148.141,72.972 148.141,73.382 147.652,73.078C147.422,72.933 147.25,72.402 147.266,71.898C147.293,71.011 147.309,71.007 147.652,71.816ZM148.168,66.519C148.684,66.71 149.16,67.273 149.234,67.769C149.309,68.265 149.988,70.277 150.75,72.242C151.508,74.203 151.93,75.808 151.684,75.808C150.953,75.808 149.723,74.472 149.723,73.675C149.723,73.269 149.328,72.023 148.848,70.906C148.004,68.949 147.348,67.105 147.273,66.476C147.254,66.308 147.656,66.328 148.168,66.519ZM150.965,67.828C151.195,67.828 151.379,67.999 151.379,68.21C151.379,68.425 151.488,68.945 151.621,69.367C151.844,70.07 151.809,70.066 151.207,69.32C150.457,68.386 150.367,67.828 150.965,67.828ZM154.129,60.152C154.906,58.589 156.672,54.714 158.059,51.542C159.441,48.371 160.941,44.957 161.387,43.957C162.32,41.878 164.531,35.749 166.344,30.23C167.523,26.628 170,21.183 170.441,21.218C170.555,21.226 171.477,21.996 172.492,22.925C173.723,24.05 174.176,24.718 173.848,24.921C173.578,25.093 172.594,27.113 171.664,29.41C170.73,31.71 169.402,34.82 168.703,36.32C168.008,37.824 166.801,40.753 166.016,42.831C162.797,51.398 162.121,53.117 160.254,57.535C159.18,60.078 157.867,63.382 157.34,64.886C156.449,67.421 156.293,67.613 155.184,67.562C154.527,67.531 153.512,67.191 152.93,66.804C151.957,66.156 151.906,65.976 152.297,64.55C152.527,63.695 153.355,61.714 154.129,60.152ZM153.535,69.183C153.812,69.277 154.34,70.57 154.707,72.054C155.078,73.542 155.602,75.171 155.867,75.675C156.133,76.179 156.34,76.937 156.324,77.355C156.293,78.164 155.105,75.726 153.832,72.238C152.934,69.765 152.852,68.953 153.535,69.183ZM157.031,70.55C157.773,70.941 158.371,71.831 158.887,73.316C159.762,75.835 159.867,75.992 160.469,75.613C160.723,75.457 160.801,74.851 160.648,74.207L160.383,73.078L161.27,74.085C161.754,74.64 162.152,75.222 162.152,75.382C162.152,75.667 161.281,76.14 159.129,77.015C157.629,77.624 157.598,77.621 157.594,76.753C157.594,76.347 157.23,75.074 156.785,73.917C156.34,72.761 155.969,71.402 155.957,70.898C155.941,70.035 156.008,70.015 157.031,70.55ZM158.531,79.386C159.227,79.035 159.93,78.749 160.094,78.749C160.367,78.749 160.699,80.925 161.082,85.257C161.238,86.999 162.438,93.035 162.84,94.101C162.969,94.437 162.973,94.71 162.855,94.71C162.316,94.71 159.477,85.667 159.035,82.539C158.891,81.503 158.68,80.507 158.57,80.324C158.188,79.699 157.562,80.499 157.812,81.3C158.223,82.609 157.551,83.199 156.949,82.062C156.332,80.89 156.66,80.335 158.531,79.386ZM161.105,59.425C161.719,57.921 162.879,55.109 163.688,53.171C164.492,51.234 165.695,48.117 166.359,46.242C167.023,44.367 168.477,40.753 169.586,38.21C172.215,32.207 173.547,28.921 174.156,26.976C174.426,26.109 174.82,25.402 175.031,25.402C175.242,25.402 175.98,26.617 176.672,28.101C177.363,29.585 178.062,30.863 178.227,30.937C178.387,31.011 179.062,32.714 179.727,34.726C180.609,37.402 180.816,38.527 180.488,38.925C180.246,39.226 179.676,40.417 179.23,41.574C177.387,46.316 175.332,51.246 175.031,51.648C174.855,51.882 174.129,53.515 173.414,55.273C172.703,57.031 170.277,62.285 168.023,66.949C163.953,75.371 163.922,75.417 163.402,74.144C163.117,73.441 162.719,72.867 162.52,72.867C161.621,72.867 162.395,70.171 164.148,67.195C164.629,66.378 168.246,57.999 170.312,52.914C170.875,51.527 172.68,47.558 174.328,44.093C178.727,34.828 178.828,34.578 178.352,34.093C177.871,33.605 176.656,34.429 176.656,35.249C176.656,35.531 175.648,37.73 174.414,40.136C172.457,43.957 170.582,48.253 164.91,61.941C164.191,63.671 163.008,66.105 162.277,67.347C161.543,68.589 160.879,69.808 160.797,70.058C160.707,70.331 160.055,70.136 159.141,69.566L157.633,68.621L158.812,65.39C159.461,63.609 160.492,60.925 161.105,59.425ZM162.117,78.328C162.312,78.675 162.68,80.281 162.938,81.898C164.449,91.496 165.07,96.093 164.879,96.289C164.555,96.617 164.367,95.855 163.398,90.3C162.91,87.527 162.363,84.503 162.176,83.578C161.707,81.249 161.668,77.523 162.117,78.328ZM165.055,97.441C165.25,97.902 165.422,98.566 165.434,98.91C165.453,99.472 165.41,99.472 165.055,98.91C164.832,98.566 164.664,97.902 164.676,97.441L164.699,96.601L165.055,97.441ZM165.031,85.683C166.004,88.113 168.09,100.581 167.699,101.621C167.297,102.683 166.922,102.367 166.855,100.906C166.703,97.621 165.207,86.746 164.859,86.394C164.738,86.269 164.652,85.871 164.664,85.503C164.688,85.023 164.785,85.074 165.031,85.683ZM169.984,66.355C172.328,61.503 174.402,57.156 174.59,56.695C174.781,56.234 176.094,53.207 177.508,49.972C178.922,46.738 180.363,43.433 180.715,42.624L181.352,41.152L181.723,42.624C182.922,47.386 183,48.105 182.383,48.624C182.051,48.906 181.156,50.55 180.398,52.285C178.742,56.074 173.547,66.613 172.32,68.667C171.84,69.476 170.719,71.839 169.828,73.917C168.18,77.777 165.953,82.109 165.617,82.109C165.516,82.109 165.5,80.55 165.578,78.644C165.723,75.21 165.762,75.093 169.984,66.355ZM169.535,78.347C170.832,75.472 172.785,71.41 173.879,69.316C174.973,67.226 177.25,62.648 178.945,59.14C180.637,55.636 182.215,52.648 182.445,52.499C182.68,52.355 182.871,51.773 182.871,51.21C182.871,48.839 183.57,50.48 184.277,54.499L185.031,58.82L183.746,60.218C183.035,60.984 182.445,61.925 182.43,62.304C182.418,62.683 181.809,64.058 181.082,65.359C180.359,66.656 179.039,69.019 178.148,70.609C177.262,72.199 176.027,74.347 175.41,75.386C174.789,76.425 173.836,78.124 173.293,79.156C171.934,81.742 167.965,87.781 167.621,87.781C167.223,87.781 166.785,85.414 167,84.417C167.102,83.957 168.242,81.226 169.535,78.347ZM167.793,103.148C168.355,103.621 168.535,103.601 168.953,103.023C169.379,102.433 169.516,102.581 169.914,104.089C170.68,106.96 170.883,108.64 170.434,108.359C170.211,108.218 170.027,107.925 170.027,107.714C170.027,107.499 169.383,106.328 168.598,105.113C166.957,102.574 166.875,102.378 167.793,103.148ZM172.84,137.398C173.023,137.285 173.652,138.695 174.238,140.535C175.582,144.73 175.066,145.324 173.637,141.222C172.414,137.703 172.406,137.671 172.84,137.398ZM176.879,146.742C177.445,148.066 177.762,152.679 177.25,152.16C176.957,151.863 176.352,148.281 176.305,146.585L176.273,145.328L176.879,146.742Z" style="fill:currentColor;"/>
            </g>
        </g>
    </g>
</svg>
